<?xml version="1.0" encoding="UTF-8" standalone="no"?> <!-- Created with Vectornator for iOS (http://vectornator.io/) --><!DOCTYPE svg PUBLIC "-//W3C//DTD SVG 1.1//EN" "http://www.w3.org/Graphics/SVG/1.1/DTD/svg11.dtd">
<svg height="100%" style="fill-rule:nonzero;clip-rule:evenodd;stroke-linecap:round;stroke-linejoin:round;" xmlns:xlink="http://www.w3.org/1999/xlink" xmlns="http://www.w3.org/2000/svg" xml:space="preserve" width="100%" xmlns:vectornator="http://vectornator.io" version="1.1" viewBox="0 0 512 512">
<metadata>
<vectornator:setting key="DimensionsVisible" value="1"/>
<vectornator:setting key="PencilOnly" value="0"/>
<vectornator:setting key="SnapToPoints" value="0"/>
<vectornator:setting key="GuidesVisible" value="1"/>
<vectornator:setting key="CMYKEnabledKey" value="0"/>
<vectornator:setting key="OutlineMode" value="0"/>
<vectornator:setting key="SnapToEdges" value="0"/>
<vectornator:setting key="RulersVisible" value="1"/>
<vectornator:setting key="DisplayWhiteBackground" value="0"/>
<vectornator:setting key="doHistoryDisabled" value="0"/>
<vectornator:setting key="TimeLapseWatermarkDisabled" value="0"/>
<vectornator:setting key="SnapToGuides" value="1"/>
<vectornator:setting key="DynamicGuides" value="0"/>
<vectornator:setting key="SnapToGrid" value="0"/>
<vectornator:setting key="Units" value="Pixels"/>
<vectornator:setting key="IsolateActiveLayer" value="0"/>
</metadata>
<defs/>
<g id="MGT" vectornator:layerName="MGT">
<path stroke="#000000" stroke-width="0.1" d="M243.184+0L268.816+0C403.123+0+512+114.615+512+256L512+256C512+397.385+403.123+512+268.816+512L243.184+512C108.877+512+0+397.385+0+256L0+256C0+114.615+108.877+0+243.184+0Z" fill="#202020" stroke-linecap="round" opacity="1" stroke-linejoin="round"/>
<path stroke="#000000" stroke-width="0.1" d="M371.571+107.588L371.571+107.588C388.779+109.712+401.65+120.166+400.321+130.938L380.762+289.392C379.432+300.164+364.405+307.174+347.197+305.05L347.197+305.05C329.99+302.926+317.118+292.472+318.448+281.701L338.007+123.246C339.337+112.475+354.364+105.464+371.571+107.588Z" fill="#9683ff" stroke-linecap="round" opacity="0" stroke-linejoin="round"/>
<path stroke="#000000" stroke-width="0.1" d="M277.726+104.933L277.726+104.933C295.064+104.933+309.119+113.732+309.119+124.585L309.119+284.242C309.119+295.095+295.064+303.894+277.726+303.894L277.726+303.894C260.388+303.894+246.333+295.095+246.333+284.242L246.333+124.585C246.333+113.732+260.388+104.933+277.726+104.933Z" fill="#9683ff" stroke-linecap="round" opacity="1" stroke-linejoin="round"/>
<path stroke="#000000" stroke-width="0.1" d="M177.423+105.347L177.423+105.347C194.586+102.885+209.748+109.599+211.289+120.343L233.955+278.383C235.496+289.126+222.832+299.831+205.67+302.292L205.67+302.292C188.507+304.754+173.345+298.04+171.804+287.296L149.138+129.256C147.597+118.513+160.261+107.808+177.423+105.347Z" fill="#9683ff" stroke-linecap="round" opacity="1" stroke-linejoin="round"/>
<path stroke="#000000" stroke-width="0.1" d="M324.89+126.888L324.89+126.888C341.802+130.708+354.045+140.299+352.236+148.309L325.619+266.15C323.81+274.16+308.633+277.558+291.721+273.738L291.721+273.738C274.809+269.918+262.566+260.327+264.375+252.316L290.992+134.476C292.801+126.465+307.978+123.068+324.89+126.888Z" fill="#8cff90" stroke-linecap="round" opacity="0" stroke-linejoin="round"/>
<path stroke="#000000" stroke-width="0.1" d="M204.468+126.768L204.468+126.768C221.664+124.548+236.432+129.168+237.455+137.088L252.5+253.592C253.522+261.512+240.412+269.732+223.217+271.953L223.217+271.953C206.022+274.173+191.253+269.553+190.23+261.633L175.185+145.129C174.163+137.209+187.273+128.989+204.468+126.768Z" fill="#8cff90" stroke-linecap="round" opacity="0" stroke-linejoin="round"/>
<path stroke="#000000" stroke-width="0.1" d="M331.228+160.698L331.228+160.698C348.566+160.698+362.621+165.623+362.621+171.699L362.621+261.074C362.621+267.15+348.566+272.075+331.228+272.075L331.228+272.075C313.89+272.075+299.835+267.15+299.835+261.074L299.835+171.699C299.835+165.623+313.89+160.698+331.228+160.698Z" fill="#ff8c8c" stroke-linecap="round" opacity="1" stroke-linejoin="round"/>
<path stroke="#000000" stroke-width="0.1" d="M181.326+160.303L181.326+160.303C198.664+160.303+212.72+165.275+212.72+171.408L212.72+261.624C212.72+267.757+198.664+272.728+181.326+272.728L181.326+272.728C163.988+272.728+149.933+267.757+149.933+261.624L149.933+171.408C149.933+165.275+163.988+160.303+181.326+160.303Z" fill="#ff8c8c" stroke-linecap="round" opacity="1" stroke-linejoin="round"/>
<path stroke="#000000" stroke-width="0.1" d="M255.55+159.269L255.55+159.269C272.888+159.269+286.943+164.244+286.943+170.38L286.943+260.65C286.943+266.786+272.888+271.761+255.55+271.761L255.55+271.761C238.211+271.761+224.156+266.786+224.156+260.65L224.156+170.38C224.156+164.244+238.211+159.269+255.55+159.269Z" fill="#ff8c8c" stroke-linecap="round" opacity="1" stroke-linejoin="round"/>
<path stroke="#000000" stroke-width="0.1" d="M229.882+101.475L229.882+101.475C247.22+101.475+261.275+110.273+261.275+121.126L261.275+280.784C261.275+291.637+247.22+300.435+229.882+300.435L229.882+300.435C212.544+300.435+198.488+291.637+198.488+280.784L198.488+121.126C198.488+110.273+212.544+101.475+229.882+101.475Z" fill="#8cff90" stroke-linecap="round" opacity="1" stroke-linejoin="round"/>
<path stroke="#000000" stroke-width="0.1" d="M324.44+108.875L324.44+108.875C341.648+110.999+354.519+121.453+353.19+132.224L333.63+290.679C332.301+301.45+317.274+308.461+300.066+306.336L300.066+306.336C282.859+304.212+269.987+293.758+271.317+282.987L290.876+124.532C292.206+113.761+307.233+106.751+324.44+108.875Z" fill="#8cff90" stroke-linecap="round" opacity="1" stroke-linejoin="round"/>
<path stroke="#000000" stroke-width="0.1" d="M257.367+354.729L257.367+354.729C257.367+376.458+251.397+394.074+244.032+394.074L135.692+394.074C128.327+394.074+122.356+376.458+122.356+354.729L122.356+354.729C122.356+332.999+128.327+315.384+135.692+315.384L244.032+315.384C251.397+315.384+257.367+332.999+257.367+354.729Z" fill="#8cff90" stroke-linecap="round" opacity="0" stroke-linejoin="round"/>
<path stroke="#000000" stroke-width="0.1" d="M399.085+352.246L399.085+352.246C399.085+373.976+393.114+391.591+385.75+391.591L277.409+391.591C270.045+391.591+264.074+373.976+264.074+352.246L264.074+352.246C264.074+330.517+270.045+312.902+277.409+312.902L385.75+312.902C393.114+312.902+399.085+330.517+399.085+352.246Z" fill="#8cff90" stroke-linecap="round" opacity="1" stroke-linejoin="round"/>
<path stroke="#000000" stroke-width="0.1" d="M359.159+324.664L359.159+324.664C359.159+346.393+353.296+364.009+346.065+364.009L239.689+364.009C232.457+364.009+226.595+346.394+226.595+324.664L226.595+324.664C226.595+302.934+232.457+285.319+239.689+285.319L346.065+285.319C353.296+285.319+359.159+302.934+359.159+324.664Z" fill="#ff8c8c" stroke-linecap="round" opacity="1" stroke-linejoin="round"/>
<path stroke="#000000" stroke-width="0.1" d="M212.361+325.134L212.361+325.134C212.361+346.865+209.662+364.481+206.333+364.481L157.359+364.481C154.03+364.481+151.331+346.865+151.331+325.134L151.331+325.134C151.331+303.404+154.03+285.788+157.359+285.788L206.333+285.788C209.662+285.788+212.361+303.404+212.361+325.134Z" fill="#ff8c8c" stroke-linecap="round" opacity="1" stroke-linejoin="round"/>
<path stroke="#000000" stroke-width="0.1" d="M156.599+208.124L156.599+208.124C173.937+208.124+187.992+212.171+187.992+217.163L187.992+290.596C187.992+295.588+173.937+299.635+156.599+299.635L156.599+299.635C139.261+299.635+125.205+295.588+125.205+290.596L125.205+217.163C125.205+212.171+139.261+208.124+156.599+208.124Z" fill="#8cff90" stroke-linecap="round" opacity="1" stroke-linejoin="round"/>
<path stroke="#000000" stroke-width="0.1" d="M238.535+354.291L238.535+354.291C238.535+376.02+232.565+393.636+225.2+393.636L116.86+393.636C109.495+393.636+103.525+376.02+103.525+354.291L103.525+354.291C103.525+332.561+109.495+314.946+116.86+314.946L225.2+314.946C232.565+314.946+238.535+332.561+238.535+354.291Z" fill="#9683ff" stroke-linecap="round" opacity="1" stroke-linejoin="round"/>
<path stroke="#000000" stroke-width="0.1" d="M381.045+353.488L381.045+353.488C381.045+375.218+375.075+392.833+367.71+392.833L259.37+392.833C252.005+392.833+246.035+375.218+246.035+353.488L246.035+353.488C246.035+331.758+252.005+314.143+259.37+314.143L367.71+314.143C375.075+314.143+381.045+331.758+381.045+353.488Z" fill="#9683ff" stroke-linecap="round" opacity="1" stroke-linejoin="round"/>
</g>
</svg>
