<?xml version="1.0" encoding="UTF-8" standalone="no"?> <!-- Created with Vectornator for iOS (http://vectornator.io/) --><!DOCTYPE svg PUBLIC "-//W3C//DTD SVG 1.1//EN" "http://www.w3.org/Graphics/SVG/1.1/DTD/svg11.dtd">
<svg height="100%" style="fill-rule:nonzero;clip-rule:evenodd;stroke-linecap:round;stroke-linejoin:round;" xmlns:xlink="http://www.w3.org/1999/xlink" xmlns="http://www.w3.org/2000/svg" xml:space="preserve" width="100%" xmlns:vectornator="http://vectornator.io" version="1.1" viewBox="0 0 512 512">
<metadata>
<vectornator:setting key="DimensionsVisible" value="1"/>
<vectornator:setting key="PencilOnly" value="0"/>
<vectornator:setting key="SnapToPoints" value="0"/>
<vectornator:setting key="GuidesVisible" value="1"/>
<vectornator:setting key="CMYKEnabledKey" value="0"/>
<vectornator:setting key="OutlineMode" value="0"/>
<vectornator:setting key="SnapToEdges" value="0"/>
<vectornator:setting key="RulersVisible" value="1"/>
<vectornator:setting key="DisplayWhiteBackground" value="0"/>
<vectornator:setting key="doHistoryDisabled" value="0"/>
<vectornator:setting key="TimeLapseWatermarkDisabled" value="0"/>
<vectornator:setting key="SnapToGuides" value="1"/>
<vectornator:setting key="DynamicGuides" value="0"/>
<vectornator:setting key="SnapToGrid" value="0"/>
<vectornator:setting key="Units" value="Pixels"/>
<vectornator:setting key="IsolateActiveLayer" value="0"/>
</metadata>
<defs/>
<g id="DEF" vectornator:layerName="DEF">
<path stroke="#000000" stroke-width="0.1" d="M243.184+0L268.816+0C403.123+0+512+114.615+512+256L512+256C512+397.385+403.123+512+268.816+512L243.184+512C108.877+512+0+397.385+0+256L0+256C0+114.615+108.877+0+243.184+0Z" fill="#dfdfdf" stroke-linecap="round" opacity="1" stroke-linejoin="round"/>
<path stroke="#202020" stroke-width="0.1" d="M256+200.929L256+200.929C169.759+200.929+99.8462+205.714+99.8462+211.617L99.8462+254.331C99.8462+260.234+169.759+265.02+256+265.02L256+265.02C342.241+265.02+412.154+260.234+412.154+254.331L412.154+211.617C412.154+205.714+342.241+200.929+256+200.929Z" fill="#202020" stroke-linecap="round" opacity="1" stroke-linejoin="round"/>
<path stroke="#202020" stroke-width="0.1" d="M255.846+210.709L255.846+210.709C312.731+210.709+358.846+212.547+358.846+214.815L358.846+231.222C358.846+233.49+312.731+235.328+255.846+235.328L255.846+235.328C198.961+235.328+152.846+233.49+152.846+231.222L152.846+214.815C152.846+212.547+198.961+210.709+255.846+210.709Z" fill="#202020" stroke-linecap="round" opacity="1" stroke-linejoin="round"/>
<path stroke="#202020" stroke-width="0.1" d="M255.846+270.709L255.846+270.709C312.731+270.709+358.846+272.547+358.846+274.815L358.846+291.222C358.846+293.49+312.731+295.328+255.846+295.328L255.846+295.328C198.961+295.328+152.846+293.49+152.846+291.222L152.846+274.815C152.846+272.547+198.961+270.709+255.846+270.709Z" fill="#202020" stroke-linecap="round" opacity="1" stroke-linejoin="round"/>
<path stroke="#202020" stroke-width="0.1" d="M256+317.929L256+317.929C169.759+317.929+99.8462+322.714+99.8462+328.617L99.8462+371.331C99.8462+377.234+169.759+382.02+256+382.02L256+382.02C342.241+382.02+412.154+377.234+412.154+371.331L412.154+328.617C412.154+322.714+342.241+317.929+256+317.929Z" fill="#202020" stroke-linecap="round" opacity="1" stroke-linejoin="round"/>
<path stroke="#202020" stroke-width="0.1" d="M255.846+168.709L255.846+168.709C312.731+168.709+358.846+170.547+358.846+172.815L358.846+189.222C358.846+191.49+312.731+193.328+255.846+193.328L255.846+193.328C198.961+193.328+152.846+191.49+152.846+189.222L152.846+172.815C152.846+170.547+198.961+168.709+255.846+168.709Z" fill="#202020" stroke-linecap="round" opacity="1" stroke-linejoin="round"/>
</g>
</svg>
